<svg xmlns="http://www.w3.org/2000/svg" width="168" height="33.441" viewBox="0 0 168 33.441">
	<defs>
		<style>.a { fill: #546dd2; fill-rule: evenodd; }
		</style>
	</defs>
	<path class="a"
		  d="M78.257,66.1a5.121,5.121,0,0,0,1.994-.275,1.064,1.064,0,0,0,.584-1.066,1.307,1.307,0,0,0-.756-1.083,14.492,14.492,0,0,0-2.3-1.048,23.579,23.579,0,0,1-2.183-.928,6.428,6.428,0,0,1-1.667-1.151,4.666,4.666,0,0,1-1.065-1.6,5.921,5.921,0,0,1-.378-2.234,4.832,4.832,0,0,1,1.89-4.022,8.224,8.224,0,0,1,5.19-1.478,16.7,16.7,0,0,1,3.162.292,14.762,14.762,0,0,1,2.406.636l-.894,3.987a18.95,18.95,0,0,0-1.942-.55,10.568,10.568,0,0,0-2.354-.24q-2.406,0-2.406,1.34a1.38,1.38,0,0,0,.1.55,1.182,1.182,0,0,0,.413.464,5.753,5.753,0,0,0,.842.481,14.354,14.354,0,0,0,1.358.573,20.809,20.809,0,0,1,2.783,1.232,6.656,6.656,0,0,1,1.736,1.306,4.058,4.058,0,0,1,.894,1.564,6.906,6.906,0,0,1,.258,1.987,4.593,4.593,0,0,1-2.011,4.05,10.057,10.057,0,0,1-5.688,1.37,16.354,16.354,0,0,1-4-.413A16.1,16.1,0,0,1,72,69.155L72.861,65a16.789,16.789,0,0,0,2.681.808,13.079,13.079,0,0,0,2.715.292ZM190.808,52.113c1.249,13.37-2.231,24.431-16.633,24.431a21.127,21.127,0,0,1-6.4-.991c-5.16-1.651-7.189-5.148-7.189-7.9V54.973c0-4.708,3.5-7.92,9.908-9.285a35.729,35.729,0,0,1,6.427-.753,28.474,28.474,0,0,1,6.113.457c4.507.881,7.777,3.049,7.777,6.721Zm-2.2,0c0-2.3-2.511-3.747-5.972-4.424a26.458,26.458,0,0,0-5.667-.42,33.516,33.516,0,0,0-6.048.717c-5.449,1.16-8.138,3.618-8.138,6.987V67.651c0,1.8,1.347,4.293,5.616,5.66a18.264,18.264,0,0,0,5.75.9c12.327-.161,15.615-10.268,14.459-22.1Zm21.169,0c-1.249,13.37,2.231,24.431,16.633,24.431a21.127,21.127,0,0,0,6.4-.991C237.973,73.9,240,70.4,240,67.651V54.973c0-3.941-2.453-6.834-7.011-8.472V43.1l-5.121.825v1.364a36.156,36.156,0,0,0-4.2-.357,28.474,28.474,0,0,0-6.113.457c-4.507.881-7.777,3.049-7.777,6.721Zm2.2,0c0-2.3,2.511-3.747,5.972-4.424a26.458,26.458,0,0,1,5.667-.42,33.456,33.456,0,0,1,4.254.387v4.452a10.3,10.3,0,0,0-1.7-.584,8.024,8.024,0,0,0-1.908-.207,8.477,8.477,0,0,0-3.42.653,6.768,6.768,0,0,0-2.526,1.891,8.619,8.619,0,0,0-1.581,3.007,13.34,13.34,0,0,0-.55,3.97,11.3,11.3,0,0,0,.635,3.9,8.141,8.141,0,0,0,1.839,2.956,8.016,8.016,0,0,0,2.956,1.873,11.379,11.379,0,0,0,3.987.653q.929,0,1.942-.086t1.994-.223q.979-.138,1.873-.327t1.581-.395v-20.2c3.218,1.338,4.811,3.391,4.811,5.984V67.651c0,1.8-1.347,4.293-5.617,5.66a18.253,18.253,0,0,1-5.749.9c-12.327-.161-15.615-10.268-14.459-22.1Zm-.539-3.928A23.7,23.7,0,0,0,201.163,46.1c-4.725,0-8.9,1.084-11.434,2.744a5.229,5.229,0,0,1,1,2.313,19.032,19.032,0,0,1,10.4-2.793,20.231,20.231,0,0,1,8.936,1.942,5.519,5.519,0,0,1,1.367-2.125Zm9.97,12.412q0-4.948,3.644-4.949a6.056,6.056,0,0,1,1.563.206,4.472,4.472,0,0,1,1.255.516v9.314q-.378.069-.962.121t-1.272.051a3.682,3.682,0,0,1-3.163-1.443,6.28,6.28,0,0,1-1.065-3.816Zm-15.88-4.365q-.687-.171-1.615-.361a9.98,9.98,0,0,0-1.994-.189,9.313,9.313,0,0,0-1.151.086,6.83,6.83,0,0,0-1.014.189V69.774h-5.121V52.658a30.559,30.559,0,0,1,3.248-.911,18.683,18.683,0,0,1,4.176-.43c.275,0,.607.018,1,.052s.779.08,1.169.137.779.126,1.168.207a5.465,5.465,0,0,1,1,.292l-.86,4.227ZM166,60.872a11.748,11.748,0,0,0,.568,3.712,7.843,7.843,0,0,0,1.752,2.973,8.278,8.278,0,0,0,2.991,1.977,11.4,11.4,0,0,0,4.244.722,17.979,17.979,0,0,0,1.925-.1q.963-.1,1.8-.258a14.243,14.243,0,0,0,1.529-.36,7.08,7.08,0,0,0,1.1-.413l-.688-4.159a10.432,10.432,0,0,1-2.216.636,14.792,14.792,0,0,1-2.767.258,5.938,5.938,0,0,1-3.506-.928,3.4,3.4,0,0,1-1.478-2.509h11.618q.033-.412.068-.945t.035-.98q0-4.571-2.235-6.925a7.984,7.984,0,0,0-6.083-2.355,8.675,8.675,0,0,0-3.214.619,8.076,8.076,0,0,0-2.767,1.821,9.035,9.035,0,0,0-1.942,3.008,11.07,11.07,0,0,0-.739,4.21Zm12.03-1.959a5.3,5.3,0,0,0-.223-1.272,3.178,3.178,0,0,0-.585-1.1,3.091,3.091,0,0,0-1-.791,3.246,3.246,0,0,0-1.495-.309,3.436,3.436,0,0,0-1.478.292,3.044,3.044,0,0,0-1.03.773,3.461,3.461,0,0,0-.636,1.117,7.36,7.36,0,0,0-.327,1.289Zm-36.639-6.6a28.563,28.563,0,0,1,3.368-.7,27.748,27.748,0,0,1,4.33-.326,10.528,10.528,0,0,1,3.833.6,5.746,5.746,0,0,1,2.423,1.7,6.638,6.638,0,0,1,1.272,2.612A13.9,13.9,0,0,1,157,59.566V69.774h-5.122V60.185a6.9,6.9,0,0,0-.653-3.506,2.663,2.663,0,0,0-2.44-1.031q-.551,0-1.169.052t-1.1.12V69.774h-5.121V52.314ZM129.16,66.2q.756,0,1.444-.035a10.036,10.036,0,0,0,1.1-.1V62.178c-.207-.045-.516-.091-.929-.137a10.065,10.065,0,0,0-2.491.017,3.531,3.531,0,0,0-1.118.327,1.923,1.923,0,0,0-.756.653,1.821,1.821,0,0,0-.275,1.031,1.758,1.758,0,0,0,.808,1.667,4.47,4.47,0,0,0,2.217.464Zm-.412-14.986a11.846,11.846,0,0,1,3.78.516,5.87,5.87,0,0,1,2.423,1.478,5.417,5.417,0,0,1,1.289,2.337,11.527,11.527,0,0,1,.378,3.059V69.259q-1.1.24-3.059.567a29.476,29.476,0,0,1-4.743.326,15.055,15.055,0,0,1-3.179-.309,6.9,6.9,0,0,1-2.458-1.014,4.639,4.639,0,0,1-1.58-1.839,6.341,6.341,0,0,1-.55-2.784,5.274,5.274,0,0,1,.635-2.681,4.887,4.887,0,0,1,1.7-1.752,7.671,7.671,0,0,1,2.44-.946,13.682,13.682,0,0,1,2.853-.292,16.277,16.277,0,0,1,1.77.086,7.93,7.93,0,0,1,1.255.223v-.481a2.834,2.834,0,0,0-.791-2.1,3.829,3.829,0,0,0-2.75-.791,17.5,17.5,0,0,0-2.577.189,11.053,11.053,0,0,0-2.2.533l-.653-4.124q.447-.138,1.117-.293t1.461-.275q.791-.12,1.667-.206t1.77-.086Zm-10.793,5.018q-.687-.171-1.615-.361a9.987,9.987,0,0,0-1.994-.189,9.313,9.313,0,0,0-1.151.086,6.83,6.83,0,0,0-1.014.189V69.774H107.06V52.658a30.558,30.558,0,0,1,3.248-.911,18.683,18.683,0,0,1,4.176-.43c.275,0,.607.018,1,.052s.779.08,1.168.137.779.126,1.169.207a5.453,5.453,0,0,1,1,.292l-.859,4.227ZM90.6,47.193l5.121-.825v5.327h6.153v4.262H95.717v6.359a5.071,5.071,0,0,0,.567,2.578,2.438,2.438,0,0,0,2.286.962,9.693,9.693,0,0,0,1.7-.155,8.8,8.8,0,0,0,1.6-.429l.721,3.987a14.643,14.643,0,0,1-2.062.653,12.031,12.031,0,0,1-2.784.275,9.144,9.144,0,0,1-3.471-.568,5.441,5.441,0,0,1-2.2-1.58,5.88,5.88,0,0,1-1.151-2.458,14.484,14.484,0,0,1-.327-3.2Z"
		  transform="translate(-72.002 -43.103)"/>
</svg>
